# xmcd
#
# Track frame offsets:
#	150
#	50481
#	82114
#	155716
#	189263
#	222391
#	244902
#
# Disc length: 3711 seconds
#
# Revision: 1
# Processed by: cddbd v1.5.2PL0 Copyright (c) Steve Scherf et al.
# Submitted via: audiograbber 1.83.01
#
DISCID=610e7d07
DTITLE=Mark Knopfler - Live in R.H.A. 2005
DYEAR=2005
DGENRE=Folk-Rock
TTITLE0=All that matters
TTITLE1=Boom like that
TTITLE2=Speedway at Nazareth
TTITLE3=Telegraph road
TTITLE4=Brothers in arms
TTITLE5=Money for nothing
TTITLE6=So far away
EXTD=
EXTT0=
EXTT1=
EXTT2=
EXTT3=
EXTT4=
EXTT5=
EXTT6=
PLAYORDER=
